<svg width="384" height="303" viewBox="0 0 384 303" fill="none" xmlns="http://www.w3.org/2000/svg">
<path d="M277.41 125.937C116.906 -83.1065 -76.183 220.185 177.008 277.41C107.454 291.512 39.6378 246.561 25.5351 177.008C11.4325 107.454 56.3841 39.6378 125.937 25.5351C195.491 11.4325 263.307 56.3841 277.41 125.937Z" fill="url(#paint0_linear)"/>
<path d="M126.527 90.6654C125.001 87.3469 124.403 85.4092 122.839 82.1026C121.696 79.6873 118.08 75.9725 118.08 75.9725V119.662C118.08 119.662 121.352 122.048 122.839 123.262C125.559 125.484 128.108 123.918 131.643 125.153C135.67 126.56 138.316 125.26 142.232 126.863C146.416 128.575 150.11 129.809 154.279 132.559C158.448 135.31 160.06 136.803 163.765 139.966C166.747 142.511 169.654 144.748 171.837 147.788C174.692 151.762 174.182 153.188 174.75 157.774C175.096 160.571 173.167 168.509 173.167 168.509C173.167 168.509 178.483 164.759 179.592 161.308C182.572 152.032 181.392 150.123 179.592 143.21C178.167 137.737 176.783 134.63 173.167 129.879C169.707 125.333 166.922 123.178 161.983 119.662C158.393 117.107 156.13 115.903 152.108 113.824C148.381 111.897 145.822 111.442 142.232 109.348C137.551 106.616 134.822 104.899 131.643 100.98C128.706 97.3572 128.398 94.734 126.527 90.6654Z" fill="black" stroke="black"/>
<ellipse cx="102.899" cy="202.548" rx="23.1192" ry="14.1546" transform="rotate(-24.8342 102.899 202.548)" fill="black"/>
<g filter="url(#filter0_d)">
<line x1="121.071" y1="196.136" x2="121.071" y2="95.9444" stroke="black" stroke-width="7"/>
</g>
<path d="M218.84 177.156H216.601V172.972H204.355V177.168H202.105L202.094 171.133H203.488C204.222 170.305 204.804 169.195 205.234 167.805C205.672 166.406 205.945 164.875 206.054 163.211L206.429 155.91H216.636V171.133H218.863L218.84 177.156ZM206.054 171.133H214.375V157.762H208.597L208.351 162.777C208.25 164.738 207.988 166.41 207.566 167.793C207.152 169.176 206.648 170.289 206.054 171.133ZM226.457 173.207C224.738 173.207 223.34 172.644 222.261 171.519C221.183 170.387 220.644 168.875 220.644 166.984V166.586C220.644 165.328 220.883 164.207 221.359 163.222C221.844 162.23 222.515 161.457 223.375 160.902C224.242 160.34 225.179 160.058 226.187 160.058C227.836 160.058 229.117 160.601 230.031 161.687C230.945 162.773 231.402 164.328 231.402 166.351V167.254H222.812C222.844 168.504 223.207 169.515 223.902 170.289C224.605 171.055 225.496 171.437 226.574 171.437C227.34 171.437 227.988 171.281 228.519 170.969C229.051 170.656 229.515 170.242 229.914 169.726L231.238 170.758C230.176 172.39 228.582 173.207 226.457 173.207ZM226.187 161.84C225.312 161.84 224.578 162.16 223.984 162.801C223.39 163.433 223.023 164.324 222.883 165.472H229.234V165.308C229.172 164.207 228.875 163.355 228.344 162.754C227.812 162.144 227.094 161.84 226.187 161.84ZM243.203 162.051H238.949V172.972H236.781V162.051H232.609V160.293H243.203V162.051ZM249.461 171.437C250.234 171.437 250.91 171.203 251.488 170.734C252.066 170.265 252.386 169.68 252.449 168.976H254.5C254.461 169.703 254.211 170.394 253.75 171.051C253.289 171.707 252.672 172.23 251.898 172.621C251.133 173.012 250.32 173.207 249.461 173.207C247.734 173.207 246.359 172.633 245.336 171.484C244.32 170.328 243.812 168.75 243.812 166.75V166.387C243.812 165.152 244.039 164.055 244.492 163.094C244.945 162.133 245.594 161.387 246.437 160.855C247.289 160.324 248.293 160.058 249.449 160.058C250.871 160.058 252.051 160.484 252.988 161.336C253.933 162.187 254.437 163.293 254.5 164.652H252.449C252.386 163.832 252.074 163.16 251.511 162.637C250.957 162.105 250.269 161.84 249.449 161.84C248.347 161.84 247.492 162.238 246.883 163.035C246.281 163.824 245.98 164.969 245.98 166.469V166.879C245.98 168.34 246.281 169.465 246.883 170.254C247.484 171.043 248.344 171.437 249.461 171.437ZM260.886 167.57H259.304V172.972H257.125V160.293H259.304V165.66H260.722L264.988 160.293H267.613L262.597 166.387L268.035 172.972H265.281L260.886 167.57ZM277.726 172.972C277.601 172.722 277.5 172.277 277.422 171.637C276.414 172.683 275.211 173.207 273.812 173.207C272.562 173.207 271.535 172.855 270.73 172.152C269.933 171.441 269.535 170.543 269.535 169.457C269.535 168.137 270.035 167.113 271.035 166.387C272.043 165.652 273.457 165.285 275.277 165.285H277.386V164.289C277.386 163.531 277.16 162.93 276.707 162.484C276.254 162.031 275.586 161.805 274.703 161.805C273.929 161.805 273.281 162 272.758 162.39C272.234 162.781 271.972 163.254 271.972 163.808H269.793C269.793 163.176 270.015 162.566 270.461 161.98C270.914 161.387 271.523 160.918 272.289 160.574C273.062 160.23 273.91 160.058 274.832 160.058C276.293 160.058 277.437 160.426 278.265 161.16C279.094 161.887 279.523 162.89 279.554 164.172V170.008C279.554 171.172 279.703 172.097 280 172.785V172.972H277.726ZM274.129 171.32C274.808 171.32 275.453 171.144 276.062 170.793C276.672 170.441 277.113 169.984 277.386 169.422V166.82H275.687C273.031 166.82 271.703 167.597 271.703 169.152C271.703 169.832 271.929 170.363 272.383 170.746C272.836 171.129 273.418 171.32 274.129 171.32ZM292.644 160.293V172.972H290.465V168.039H287.195L284.207 172.972H281.863L285.051 167.711C284.238 167.414 283.613 166.957 283.176 166.34C282.746 165.715 282.531 164.988 282.531 164.16C282.531 163.004 282.965 162.074 283.832 161.371C284.699 160.66 285.859 160.301 287.312 160.293H292.644ZM284.711 164.183C284.711 164.801 284.922 165.301 285.344 165.683C285.765 166.058 286.324 166.25 287.019 166.258H290.465V162.051H287.347C286.543 162.051 285.902 162.25 285.426 162.648C284.949 163.039 284.711 163.551 284.711 164.183ZM174.812 183.91L180.39 197.832L185.969 183.91H188.886V200.972H186.636V194.328L186.847 187.156L181.246 200.972H179.523L173.933 187.191L174.156 194.328V200.972H171.906V183.91H174.812ZM196.668 197.797L199.621 188.293H201.941L196.844 202.93C196.054 205.039 194.801 206.094 193.082 206.094L192.672 206.058L191.863 205.906V204.148L192.449 204.195C193.183 204.195 193.754 204.047 194.16 203.75C194.574 203.453 194.914 202.91 195.179 202.121L195.66 200.832L191.136 188.293H193.504L196.668 197.797ZM210.859 191.762C210.859 191.168 210.633 190.699 210.179 190.355C209.726 190.004 209.105 189.828 208.316 189.828C207.551 189.828 206.91 190.027 206.394 190.426C205.886 190.824 205.633 191.293 205.633 191.832H203.476C203.476 190.73 203.937 189.828 204.859 189.125C205.781 188.422 206.933 188.07 208.316 188.07C209.801 188.07 210.957 188.39 211.785 189.031C212.613 189.664 213.027 190.57 213.027 191.75C213.027 192.32 212.855 192.844 212.511 193.32C212.168 193.797 211.679 194.176 211.047 194.457C212.523 194.957 213.261 195.941 213.261 197.41C213.261 198.574 212.812 199.496 211.914 200.176C211.015 200.855 209.816 201.195 208.316 201.195C206.855 201.195 205.648 200.84 204.695 200.129C203.75 199.41 203.277 198.441 203.277 197.222H205.433C205.433 197.84 205.707 198.371 206.254 198.816C206.808 199.254 207.496 199.472 208.316 199.472C209.144 199.472 209.812 199.281 210.32 198.898C210.828 198.515 211.082 198.019 211.082 197.41C211.082 196.699 210.867 196.191 210.437 195.887C210.015 195.574 209.355 195.418 208.457 195.418H206.289V193.59H208.644C210.121 193.551 210.859 192.941 210.859 191.762ZM218.441 192.664H221.734C223.172 192.68 224.308 193.055 225.144 193.789C225.98 194.523 226.398 195.519 226.398 196.777C226.398 198.043 225.969 199.058 225.109 199.824C224.25 200.59 223.094 200.972 221.64 200.972H216.273V188.293H218.441V192.664ZM230.922 200.972H228.742V188.293H230.922V200.972ZM218.441 194.433V199.203H221.664C222.476 199.203 223.105 198.996 223.551 198.582C223.996 198.16 224.219 197.586 224.219 196.859C224.219 196.156 224 195.582 223.562 195.137C223.133 194.683 222.527 194.449 221.746 194.433H218.441ZM238.656 195.57H237.074V200.972H234.894V188.293H237.074V193.66H238.492L242.758 188.293H245.383L240.367 194.387L245.804 200.972H243.051L238.656 195.57ZM255.496 200.972C255.371 200.722 255.269 200.277 255.191 199.637C254.183 200.683 252.98 201.207 251.582 201.207C250.332 201.207 249.304 200.855 248.5 200.152C247.703 199.441 247.304 198.543 247.304 197.457C247.304 196.137 247.804 195.113 248.804 194.387C249.812 193.652 251.226 193.285 253.047 193.285H255.156V192.289C255.156 191.531 254.929 190.93 254.476 190.484C254.023 190.031 253.355 189.805 252.472 189.805C251.699 189.805 251.051 190 250.527 190.39C250.004 190.781 249.742 191.254 249.742 191.808H247.562C247.562 191.176 247.785 190.566 248.23 189.98C248.683 189.387 249.293 188.918 250.058 188.574C250.832 188.23 251.679 188.058 252.601 188.058C254.062 188.058 255.207 188.426 256.035 189.16C256.863 189.887 257.293 190.89 257.324 192.172V198.008C257.324 199.172 257.472 200.097 257.769 200.785V200.972H255.496ZM251.898 199.32C252.578 199.32 253.222 199.144 253.832 198.793C254.441 198.441 254.883 197.984 255.156 197.422V194.82H253.457C250.801 194.82 249.472 195.597 249.472 197.152C249.472 197.832 249.699 198.363 250.152 198.746C250.605 199.129 251.187 199.32 251.898 199.32ZM271.117 188.293V200.972H268.937V190.086H264.625L264.367 194.832C264.226 197.012 263.859 198.57 263.265 199.508C262.679 200.445 261.746 200.933 260.465 200.972H259.597V199.062L260.219 199.015C260.922 198.937 261.426 198.531 261.73 197.797C262.035 197.062 262.23 195.703 262.316 193.719L262.551 188.293H271.117ZM276.965 192.664H280.258C281.695 192.68 282.832 193.055 283.668 193.789C284.504 194.523 284.922 195.519 284.922 196.777C284.922 198.043 284.492 199.058 283.633 199.824C282.773 200.59 281.617 200.972 280.164 200.972H274.797V188.293H276.965V192.664ZM276.965 194.433V199.203H280.187C281 199.203 281.629 198.996 282.074 198.582C282.519 198.16 282.742 197.586 282.742 196.859C282.742 196.156 282.523 195.582 282.086 195.137C281.656 194.683 281.051 194.449 280.269 194.433H276.965ZM297.988 200.972H295.82V195.558H289.996V200.972H287.816V188.293H289.996V193.789H295.82V188.293H297.988V200.972ZM309.308 200.972C309.183 200.722 309.082 200.277 309.004 199.637C307.996 200.683 306.793 201.207 305.394 201.207C304.144 201.207 303.117 200.855 302.312 200.152C301.515 199.441 301.117 198.543 301.117 197.457C301.117 196.137 301.617 195.113 302.617 194.387C303.625 193.652 305.039 193.285 306.859 193.285H308.969V192.289C308.969 191.531 308.742 190.93 308.289 190.484C307.836 190.031 307.168 189.805 306.285 189.805C305.511 189.805 304.863 190 304.34 190.39C303.816 190.781 303.554 191.254 303.554 191.808H301.375C301.375 191.176 301.597 190.566 302.043 189.98C302.496 189.387 303.105 188.918 303.871 188.574C304.644 188.23 305.492 188.058 306.414 188.058C307.875 188.058 309.019 188.426 309.847 189.16C310.676 189.887 311.105 190.89 311.136 192.172V198.008C311.136 199.172 311.285 200.097 311.582 200.785V200.972H309.308ZM305.711 199.32C306.39 199.32 307.035 199.144 307.644 198.793C308.254 198.441 308.695 197.984 308.969 197.422V194.82H307.269C304.613 194.82 303.285 195.597 303.285 197.152C303.285 197.832 303.511 198.363 303.965 198.746C304.418 199.129 305 199.32 305.711 199.32ZM324.226 188.293V200.972H322.047V196.039H318.777L315.789 200.972H313.445L316.633 195.711C315.82 195.414 315.195 194.957 314.758 194.34C314.328 193.715 314.113 192.988 314.113 192.16C314.113 191.004 314.547 190.074 315.414 189.371C316.281 188.66 317.441 188.301 318.894 188.293H324.226ZM316.293 192.183C316.293 192.801 316.504 193.301 316.926 193.683C317.347 194.058 317.906 194.25 318.601 194.258H322.047V190.051H318.929C318.125 190.051 317.484 190.25 317.008 190.648C316.531 191.039 316.293 191.551 316.293 192.183ZM192.402 211.91V227.133H198.273V211.91H200.511V227.133H206.347V211.91H208.597V228.972H190.14V211.91H192.402ZM216.261 223.57H214.679V228.972H212.5V216.293H214.679V221.66H216.097L220.363 216.293H222.988L217.972 222.387L223.41 228.972H220.656L216.261 223.57ZM224.441 222.515C224.441 221.273 224.683 220.156 225.168 219.164C225.66 218.172 226.34 217.406 227.207 216.867C228.082 216.328 229.078 216.058 230.195 216.058C231.922 216.058 233.316 216.656 234.379 217.851C235.449 219.047 235.984 220.637 235.984 222.621V222.773C235.984 224.008 235.746 225.117 235.269 226.101C234.801 227.078 234.125 227.84 233.242 228.387C232.367 228.933 231.359 229.207 230.219 229.207C228.5 229.207 227.105 228.609 226.035 227.414C224.972 226.219 224.441 224.637 224.441 222.668V222.515ZM226.621 222.773C226.621 224.18 226.945 225.308 227.594 226.16C228.25 227.012 229.125 227.437 230.219 227.437C231.32 227.437 232.195 227.008 232.844 226.148C233.492 225.281 233.816 224.07 233.816 222.515C233.816 221.125 233.484 220 232.82 219.14C232.164 218.273 231.289 217.84 230.195 217.84C229.125 217.84 228.261 218.265 227.605 219.117C226.949 219.969 226.621 221.187 226.621 222.773ZM248.91 216.293V228.972H246.73V218.086H242.418L242.16 222.832C242.019 225.012 241.652 226.57 241.058 227.508C240.472 228.445 239.539 228.933 238.258 228.972H237.39V227.062L238.011 227.015C238.715 226.937 239.219 226.531 239.523 225.797C239.828 225.062 240.023 223.703 240.109 221.719L240.344 216.293H248.91ZM260.219 228.972C260.094 228.722 259.992 228.277 259.914 227.637C258.906 228.683 257.703 229.207 256.304 229.207C255.054 229.207 254.027 228.855 253.222 228.152C252.426 227.441 252.027 226.543 252.027 225.457C252.027 224.137 252.527 223.113 253.527 222.387C254.535 221.652 255.949 221.285 257.769 221.285H259.879V220.289C259.879 219.531 259.652 218.93 259.199 218.484C258.746 218.031 258.078 217.805 257.195 217.805C256.422 217.805 255.773 218 255.25 218.39C254.726 218.781 254.465 219.254 254.465 219.808H252.285C252.285 219.176 252.508 218.566 252.953 217.98C253.406 217.387 254.015 216.918 254.781 216.574C255.554 216.23 256.402 216.058 257.324 216.058C258.785 216.058 259.929 216.426 260.758 217.16C261.586 217.887 262.015 218.89 262.047 220.172V226.008C262.047 227.172 262.195 228.097 262.492 228.785V228.972H260.219ZM256.621 227.32C257.301 227.32 257.945 227.144 258.554 226.793C259.164 226.441 259.605 225.984 259.879 225.422V222.82H258.179C255.523 222.82 254.195 223.597 254.195 225.152C254.195 225.832 254.422 226.363 254.875 226.746C255.328 227.129 255.91 227.32 256.621 227.32ZM292.679 224.144H285.472V222.48H292.679V224.144ZM285.051 215.765C285.051 214.555 285.414 213.578 286.14 212.836C286.867 212.094 287.84 211.722 289.058 211.722C290.277 211.722 291.25 212.09 291.976 212.824C292.711 213.551 293.078 214.551 293.078 215.824V216.914C293.078 218.14 292.715 219.117 291.988 219.844C291.269 220.57 290.301 220.933 289.082 220.933C287.847 220.933 286.867 220.57 286.14 219.844C285.414 219.109 285.051 218.113 285.051 216.855V215.765ZM286.961 216.914C286.961 217.68 287.144 218.273 287.511 218.695C287.886 219.109 288.41 219.316 289.082 219.316C289.738 219.316 290.246 219.109 290.605 218.695C290.972 218.281 291.16 217.699 291.168 216.949V215.765C291.168 215.008 290.98 214.422 290.605 214.008C290.238 213.586 289.722 213.375 289.058 213.375C288.402 213.375 287.886 213.586 287.511 214.008C287.144 214.422 286.961 215.015 286.961 215.789V216.914ZM283.164 228.972H280.773L273.824 215.683V228.972H271.656V211.91H274.035L281.019 225.234V211.91H283.164V228.972ZM305.008 223.242H307.375V225.012H305.008V228.972H302.828V225.012H295.058V223.734L302.699 211.91H305.008V223.242ZM297.519 223.242H302.828V214.875L302.57 215.344L297.519 223.242ZM196.398 246.086H190.551V256.972H188.371V244.293H196.398V246.086ZM198.332 255.836C198.332 255.461 198.441 255.148 198.66 254.898C198.886 254.648 199.222 254.523 199.668 254.523C200.113 254.523 200.449 254.648 200.676 254.898C200.91 255.148 201.027 255.461 201.027 255.836C201.027 256.195 200.91 256.496 200.676 256.738C200.449 256.98 200.113 257.101 199.668 257.101C199.222 257.101 198.886 256.98 198.66 256.738C198.441 256.496 198.332 256.195 198.332 255.836ZM223.937 256.972H221.676V241.762H213.261V256.972H211.011V239.91H223.937V256.972ZM232.961 257.207C231.242 257.207 229.844 256.644 228.765 255.519C227.687 254.387 227.148 252.875 227.148 250.984V250.586C227.148 249.328 227.386 248.207 227.863 247.222C228.347 246.23 229.019 245.457 229.879 244.902C230.746 244.34 231.683 244.058 232.691 244.058C234.34 244.058 235.621 244.601 236.535 245.687C237.449 246.773 237.906 248.328 237.906 250.351V251.254H229.316C229.347 252.504 229.711 253.515 230.406 254.289C231.109 255.055 232 255.437 233.078 255.437C233.844 255.437 234.492 255.281 235.023 254.969C235.554 254.656 236.019 254.242 236.418 253.726L237.742 254.758C236.679 256.39 235.086 257.207 232.961 257.207ZM232.691 245.84C231.816 245.84 231.082 246.16 230.488 246.801C229.894 247.433 229.527 248.324 229.386 249.472H235.738V249.308C235.676 248.207 235.379 247.355 234.847 246.754C234.316 246.144 233.597 245.84 232.691 245.84ZM251.136 250.773C251.136 252.703 250.695 254.258 249.812 255.437C248.929 256.617 247.734 257.207 246.226 257.207C244.687 257.207 243.476 256.719 242.594 255.742V261.847H240.426V244.293H242.406L242.511 245.699C243.394 244.605 244.621 244.058 246.191 244.058C247.715 244.058 248.918 244.633 249.801 245.781C250.691 246.93 251.136 248.527 251.136 250.574V250.773ZM248.969 250.527C248.969 249.097 248.664 247.969 248.054 247.14C247.445 246.312 246.609 245.898 245.547 245.898C244.234 245.898 243.25 246.48 242.594 247.644V253.703C243.242 254.859 244.234 255.437 245.57 255.437C246.609 255.437 247.433 255.027 248.043 254.207C248.66 253.379 248.969 252.152 248.969 250.527ZM259.164 257.207C257.445 257.207 256.047 256.644 254.969 255.519C253.89 254.387 253.351 252.875 253.351 250.984V250.586C253.351 249.328 253.59 248.207 254.066 247.222C254.551 246.23 255.222 245.457 256.082 244.902C256.949 244.34 257.886 244.058 258.894 244.058C260.543 244.058 261.824 244.601 262.738 245.687C263.652 246.773 264.109 248.328 264.109 250.351V251.254H255.519C255.551 252.504 255.914 253.515 256.609 254.289C257.312 255.055 258.203 255.437 259.281 255.437C260.047 255.437 260.695 255.281 261.226 254.969C261.758 254.656 262.222 254.242 262.621 253.726L263.945 254.758C262.883 256.39 261.289 257.207 259.164 257.207ZM258.894 245.84C258.019 245.84 257.285 246.16 256.691 246.801C256.097 247.433 255.73 248.324 255.59 249.472H261.941V249.308C261.879 248.207 261.582 247.355 261.051 246.754C260.519 246.144 259.801 245.84 258.894 245.84ZM271.715 255.437C272.488 255.437 273.164 255.203 273.742 254.734C274.32 254.265 274.64 253.68 274.703 252.976H276.754C276.715 253.703 276.465 254.394 276.004 255.051C275.543 255.707 274.926 256.23 274.152 256.621C273.386 257.012 272.574 257.207 271.715 257.207C269.988 257.207 268.613 256.633 267.59 255.484C266.574 254.328 266.066 252.75 266.066 250.75V250.387C266.066 249.152 266.293 248.055 266.746 247.094C267.199 246.133 267.847 245.387 268.691 244.855C269.543 244.324 270.547 244.058 271.703 244.058C273.125 244.058 274.304 244.484 275.242 245.336C276.187 246.187 276.691 247.293 276.754 248.652H274.703C274.64 247.832 274.328 247.16 273.765 246.637C273.211 246.105 272.523 245.84 271.703 245.84C270.601 245.84 269.746 246.238 269.136 247.035C268.535 247.824 268.234 248.969 268.234 250.469V250.879C268.234 252.34 268.535 253.465 269.136 254.254C269.738 255.043 270.597 255.437 271.715 255.437ZM279.39 256.972V244.293H284.336C286.023 244.293 287.316 244.59 288.215 245.183C289.121 245.769 289.574 246.633 289.574 247.773C289.574 248.359 289.398 248.89 289.047 249.367C288.695 249.836 288.176 250.195 287.488 250.445C288.254 250.625 288.867 250.976 289.328 251.5C289.797 252.023 290.031 252.648 290.031 253.375C290.031 254.539 289.601 255.43 288.742 256.047C287.89 256.664 286.683 256.972 285.121 256.972H279.39ZM281.558 251.406V255.226H285.144C286.051 255.226 286.726 255.058 287.172 254.722C287.625 254.387 287.851 253.914 287.851 253.305C287.851 252.039 286.922 251.406 285.062 251.406H281.558ZM281.558 249.672H284.359C286.39 249.672 287.406 249.078 287.406 247.89C287.406 246.703 286.445 246.09 284.523 246.051H281.558V249.672ZM298.164 257.207C296.445 257.207 295.047 256.644 293.969 255.519C292.89 254.387 292.351 252.875 292.351 250.984V250.586C292.351 249.328 292.59 248.207 293.066 247.222C293.551 246.23 294.222 245.457 295.082 244.902C295.949 244.34 296.886 244.058 297.894 244.058C299.543 244.058 300.824 244.601 301.738 245.687C302.652 246.773 303.109 248.328 303.109 250.351V251.254H294.519C294.551 252.504 294.914 253.515 295.609 254.289C296.312 255.055 297.203 255.437 298.281 255.437C299.047 255.437 299.695 255.281 300.226 254.969C300.758 254.656 301.222 254.242 301.621 253.726L302.945 254.758C301.883 256.39 300.289 257.207 298.164 257.207ZM297.894 245.84C297.019 245.84 296.285 246.16 295.691 246.801C295.097 247.433 294.73 248.324 294.59 249.472H300.941V249.308C300.879 248.207 300.582 247.355 300.051 246.754C299.519 246.144 298.801 245.84 297.894 245.84ZM314.91 246.051H310.656V256.972H308.488V246.051H304.316V244.293H314.91V246.051Z" fill="black"/>
<defs>
<filter id="filter0_d" x="113.571" y="95.9443" width="15" height="108.192" filterUnits="userSpaceOnUse" color-interpolation-filters="sRGB">
<feFlood flood-opacity="0" result="BackgroundImageFix"/>
<feColorMatrix in="SourceAlpha" type="matrix" values="0 0 0 0 0 0 0 0 0 0 0 0 0 0 0 0 0 0 127 0"/>
<feOffset dy="4"/>
<feGaussianBlur stdDeviation="2"/>
<feColorMatrix type="matrix" values="0 0 0 0 0 0 0 0 0 0 0 0 0 0 0 0 0 0 0.25 0"/>
<feBlend mode="normal" in2="BackgroundImageFix" result="effect1_dropShadow"/>
<feBlend mode="normal" in="SourceGraphic" in2="effect1_dropShadow" result="shape"/>
</filter>
<linearGradient id="paint0_linear" x1="159.472" y1="267.972" x2="281.972" y2="66.4725" gradientUnits="userSpaceOnUse">
<stop/>
<stop offset="1" stop-opacity="0"/>
</linearGradient>
</defs>
</svg>
